<svg xmlns="http://www.w3.org/2000/svg" viewBox="0 0 1000 420" width="1000" height="420">
  <defs>
    <linearGradient id="bg3" x1="0%" y1="0%" x2="100%" y2="100%">
      <stop offset="0%" stop-color="#111827"/>
      <stop offset="100%" stop-color="#1f2937"/>
    </linearGradient>
  </defs>

  <rect width="1000" height="420" fill="url(#bg3)" rx="12"/>

  <!-- Title -->
  <text x="500" y="35" text-anchor="middle" fill="#f1f5f9" font-family="sans-serif" font-size="18" font-weight="bold">Comparison: SDD vs SPDD vs BMAD vs Harness+Loop</text>

  <!-- Column headers -->
  <g font-family="monospace" font-size="11" font-weight="bold" text-anchor="middle">
    <text x="140" y="65" fill="#ef4444">SDD</text>
    <text x="340" y="65" fill="#f59e0b">SPDD</text>
    <text x="540" y="65" fill="#8b5cf6">BMAD</text>
    <text x="780" y="65" fill="#10b981">HARNESS + LOOP</text>
  </g>

  <!-- Subtitle -->
  <g font-family="sans-serif" font-size="9" text-anchor="middle" fill="#64748b">
    <text x="140" y="80">Spec-Driven Dev</text>
    <text x="340" y="80">Spec-Driven Product Dev</text>
    <text x="540" y="80">Agile AI-Driven Dev</text>
    <text x="780" y="80">Autonomous Agent Loop</text>
  </g>

  <!-- Row dividers -->
  <g stroke="#374151" stroke-width="1">
    <line x1="30" y1="95" x2="970" y2="95"/>
    <line x1="30" y1="155" x2="970" y2="155"/>
    <line x1="30" y1="215" x2="970" y2="215"/>
    <line x1="30" y1="275" x2="970" y2="275"/>
    <line x1="30" y1="335" x2="970" y2="335"/>
  </g>

  <!-- Column dividers -->
  <g stroke="#374151" stroke-width="1">
    <line x1="240" y1="95" x2="240" y2="395"/>
    <line x1="440" y1="95" x2="440" y2="395"/>
    <line x1="640" y1="95" x2="640" y2="395"/>
  </g>

  <!-- Row labels -->
  <g font-family="monospace" font-size="9" fill="#64748b">
    <text x="35" y="125">Spec First</text>
    <text x="35" y="185">Agents</text>
    <text x="35" y="245">Product Focus</text>
    <text x="35" y="305">Autonomy</text>
    <text x="35" y="365">Verification</text>
  </g>

  <!-- Data -->
  <g font-family="sans-serif" font-size="10" fill="#cbd5e1" text-anchor="middle">
    <text x="140" y="125">✓ Spec → Code</text>
    <text x="340" y="125">✓ Spec → Product</text>
    <text x="540" y="125">✓ PRD → Arch → Code</text>
    <text x="780" y="125">✓ Plan → Spec → Code → Verify</text>

    <text x="140" y="185">Single agent</text>
    <text x="340" y="185">Multi-agent</text>
    <text x="540" y="185">12+ personas</text>
    <text x="780" y="185">Orchestrator + workers</text>

    <text x="140" y="245">Low</text>
    <text x="340" y="245">Medium</text>
    <text x="540" y="245">High (PM, UX, Dev)</text>
    <text x="780" y="245">Full lifecycle</text>

    <text x="140" y="305">Manual trigger</text>
    <text x="340" y="305">Workflow-guided</text>
    <text x="540" y="305">Workflow-guided</text>
    <text x="780" y="305">Fully autonomous</text>

    <text x="140" y="365">Tests</text>
    <text x="340" y="365">Tests + Review</text>
    <text x="540" y="365">Review + Retro</text>
    <text x="780" y="365">Unit + E2E + Load + CI/CD</text>
  </g>
</svg>
