<svg xmlns="http://www.w3.org/2000/svg" viewBox="0 0 1200 630" width="1200" height="630">
  <defs>
    <linearGradient id="bg" x1="0%" y1="0%" x2="100%" y2="100%">
      <stop offset="0%" stop-color="#0f172a"/>
      <stop offset="100%" stop-color="#1e293b"/>
    </linearGradient>
    <linearGradient id="loop" x1="0%" y1="0%" x2="100%" y2="0%">
      <stop offset="0%" stop-color="#3b82f6"/>
      <stop offset="50%" stop-color="#8b5cf6"/>
      <stop offset="100%" stop-color="#3b82f6"/>
    </linearGradient>
    <filter id="glow">
      <feGaussianBlur stdDeviation="3" result="blur"/>
      <feMerge><feMergeNode in="blur"/><feMergeNode in="SourceGraphic"/></feMerge>
    </filter>
  </defs>

  <!-- Background -->
  <rect width="1200" height="630" fill="url(#bg)"/>

  <!-- Grid pattern -->
  <g opacity="0.05" stroke="#3b82f6" stroke-width="1">
    <line x1="0" y1="105" x2="1200" y2="105"/>
    <line x1="0" y1="210" x2="1200" y2="210"/>
    <line x1="0" y1="315" x2="1200" y2="315"/>
    <line x1="0" y1="420" x2="1200" y2="420"/>
    <line x1="0" y1="525" x2="1200" y2="525"/>
    <line x1="200" y1="0" x2="200" y2="630"/>
    <line x1="400" y1="0" x2="400" y2="630"/>
    <line x1="600" y1="0" x2="600" y2="630"/>
    <line x1="800" y1="0" x2="800" y2="630"/>
    <line x1="1000" y1="0" x2="1000" y2="630"/>
  </g>

  <!-- Central loop -->
  <g transform="translate(600, 330)">
    <!-- Loop circle -->
    <circle cx="0" cy="0" r="180" fill="none" stroke="url(#loop)" stroke-width="3" opacity="0.6" filter="url(#glow)"/>
    <circle cx="0" cy="0" r="140" fill="none" stroke="url(#loop)" stroke-width="2" opacity="0.3" stroke-dasharray="8 4"/>

    <!-- Nodes around the loop -->
    <!-- Plan -->
    <g transform="translate(0, -180)">
      <circle cx="0" cy="0" r="38" fill="#1e293b" stroke="#3b82f6" stroke-width="2"/>
      <text x="0" y="5" text-anchor="middle" fill="#3b82f6" font-family="monospace" font-size="11" font-weight="bold">PLAN</text>
    </g>

    <!-- Execute -->
    <g transform="translate(156, -90)">
      <circle cx="0" cy="0" r="38" fill="#1e293b" stroke="#10b981" stroke-width="2"/>
      <text x="0" y="5" text-anchor="middle" fill="#10b981" font-family="monospace" font-size="10" font-weight="bold">EXEC</text>
    </g>

    <!-- Verify -->
    <g transform="translate(156, 90)">
      <circle cx="0" cy="0" r="38" fill="#1e293b" stroke="#f59e0b" stroke-width="2"/>
      <text x="0" y="5" text-anchor="middle" fill="#f59e0b" font-family="monospace" font-size="10" font-weight="bold">TEST</text>
    </g>

    <!-- Learn -->
    <g transform="translate(0, 180)">
      <circle cx="0" cy="0" r="38" fill="#1e293b" stroke="#8b5cf6" stroke-width="2"/>
      <text x="0" y="5" text-anchor="middle" fill="#8b5cf6" font-family="monospace" font-size="10" font-weight="bold">LEARN</text>
    </g>

    <!-- Deploy -->
    <g transform="translate(-156, 90)">
      <circle cx="0" cy="0" r="38" fill="#1e293b" stroke="#06b6d4" stroke-width="2"/>
      <text x="0" y="5" text-anchor="middle" fill="#06b6d4" font-family="monospace" font-size="9" font-weight="bold">DEPLOY</text>
    </g>

    <!-- Spec -->
    <g transform="translate(-156, -90)">
      <circle cx="0" cy="0" r="38" fill="#1e293b" stroke="#ef4444" stroke-width="2"/>
      <text x="0" y="5" text-anchor="middle" fill="#ef4444" font-family="monospace" font-size="10" font-weight="bold">SPEC</text>
    </g>

    <!-- Arrows -->
    <g fill="none" stroke-width="2.5" opacity="0.7">
      <path d="M 30,-155 Q 90,-120 130,-100" stroke="#3b82f6"/>
      <path d="M 165,-55 Q 185,0 165,55" stroke="#10b981"/>
      <path d="M 130,100 Q 90,135 30,155" stroke="#f59e0b"/>
      <path d="M -30,155 Q -90,135 -130,100" stroke="#8b5cf6"/>
      <path d="M -165,55 Q -185,0 -165,-55" stroke="#06b6d4"/>
      <path d="M -130,-100 Q -90,-120 -30,-155" stroke="#ef4444"/>
    </g>

    <!-- Center -->
    <circle cx="0" cy="0" r="50" fill="#0f172a" stroke="#1e293b" stroke-width="2"/>
    <text x="0" y="-5" text-anchor="middle" fill="#64748b" font-family="sans-serif" font-size="10">AGENT</text>
    <text x="0" y="12" text-anchor="middle" fill="#64748b" font-family="sans-serif" font-size="10">LOOP</text>
  </g>

  <!-- Title -->
  <text x="80" y="80" fill="#f1f5f9" font-family="sans-serif" font-size="32" font-weight="bold">Agentic Loop Engineering</text>
  <text x="80" y="110" fill="#64748b" font-family="sans-serif" font-size="16">SDD · SPDD · BMAD · Harness · Loop Engineering</text>

  <!-- Bottom labels -->
  <text x="80" y="560" fill="#3b82f6" font-family="monospace" font-size="12">hermes-agent</text>
  <text x="200" y="560" fill="#64748b" font-family="monospace" font-size="12">+ kanban + github</text>
  <text x="350" y="560" fill="#64748b" font-family="monospace" font-size="12">| MiniMax M3 · GLM 5.2</text>

  <!-- Tech icons (simplified) -->
  <g transform="translate(1050, 540)" opacity="0.4">
    <rect x="-30" y="-15" width="60" height="30" rx="4" fill="none" stroke="#3b82f6" stroke-width="1.5"/>
    <text x="0" y="5" text-anchor="middle" fill="#3b82f6" font-family="monospace" font-size="9">CI/CD</text>
  </g>
</svg>
